<svg version="1" xmlns="http://www.w3.org/2000/svg" width="682.667" height="682.667" viewBox="0 0 512.000000 512.000000"><path d="M89 .6C42.8 3.9 16.1 23.3 5 61.5.4 77.4.5 74.4.5 257 .5 448.2.1 436.4 7 456.6c8.8 26.1 28.7 44 56.1 50.7 17.3 4.3 12.7 4.2 192.9 4.2 180.2 0 175.6.1 192.9-4.2 34.4-8.4 54.2-31.6 61.3-71.3 1.9-11 1.9-348.9 0-360-6.8-38.6-25.1-60.7-58.6-70.7C435.5.5 442.9.7 262.5.5 169.6.4 91.5.5 89 .6zm167.6 111.6c61.2 35.4 111.2 64.6 111.1 65-.2.7-219.4 127.3-222.4 128.5-1 .4-1.3-25.7-1.3-128.6 0-71 .3-129.1.6-129.1.4 0 50.8 28.9 112 64.2zm111.6 266.3l-.7 88.1-109.1-63.1c-60-34.6-110-63.7-111.2-64.5-2.1-1.4 3.2-4.6 109.6-65.8L368.5 209l.2 40.7c.2 22.5-.1 80.4-.5 128.8z"/></svg>